<?xml version="1.0" standalone="no"?>
<!DOCTYPE svg PUBLIC "-//W3C//DTD SVG 20010904//EN"
 "http://www.w3.org/TR/2001/REC-SVG-20010904/DTD/svg10.dtd">
<svg version="1.0" xmlns="http://www.w3.org/2000/svg"
 width="1500.000000pt" height="1500.000000pt" viewBox="0 0 1500.000000 1500.000000"
 preserveAspectRatio="xMidYMid meet">
<metadata>
Created by potrace 1.14, written by Peter Selinger 2001-2017
</metadata>
<g transform="translate(0.000000,1500.000000) scale(0.100000,-0.100000)"
fill="#000000" stroke="none">
<path d="M0 7500 l0 -7500 7500 0 7500 0 0 7500 0 7500 -7500 0 -7500 0 0
-7500z m7735 4230 c882 -52 1721 -372 2396 -912 796 -636 1321 -1499 1523
-2498 26 -129 60 -379 71 -532 l7 -88 206 -2 207 -2 -285 -7 c-370 -8 -8324
-8 -8710 1 l-295 6 207 2 206 2 7 88 c45 598 205 1162 476 1680 125 240 314
524 490 737 107 129 425 447 554 554 824 682 1886 1033 2940 971z m3055 -4459
l335 -7 -476 -2 c-420 -2 -478 -4 -483 -18 -3 -8 -2 -13 3 -10 12 8 59 -55 98
-133 50 -101 66 -189 60 -339 -5 -125 -30 -248 -48 -236 -5 3 -6 -2 -3 -10 12
-31 -59 -140 -151 -231 -74 -74 -108 -99 -190 -142 -174 -90 -345 -134 -588
-153 -73 -5 -462 -10 -865 -10 l-733 0 3 43 3 42 85 7 c141 10 218 38 277 100
64 66 63 58 63 595 l0 488 -712 0 c-620 -1 -713 -3 -710 -15 2 -8 78 -186 169
-395 266 -611 325 -712 439 -754 30 -12 73 -21 94 -21 l40 0 0 -45 0 -45 -570
0 -570 0 0 39 c0 43 -1 43 105 56 198 24 237 83 179 267 -25 80 -220 592 -308
808 l-42 105 -475 2 -474 3 -40 -94 c-22 -52 -44 -92 -49 -89 -5 4 -6 1 -2 -5
3 -6 -5 -37 -20 -69 -14 -32 -55 -132 -90 -223 -36 -91 -68 -173 -72 -183 -4
-11 -8 -1 -9 29 -1 25 1 43 4 40 6 -6 73 116 73 131 -1 5 -7 -4 -16 -19 -10
-19 -19 -25 -31 -21 -11 4 -14 3 -9 -6 9 -14 -2 -71 -14 -71 -5 0 -10 8 -13
18 -2 9 -4 2 -4 -16 0 -18 -3 -35 -7 -39 -3 -3 -5 7 -5 23 2 48 9 63 25 57 14
-5 20 8 8 20 -3 3 -5 65 -5 137 1 88 -1 130 -8 125 -11 -6 20 82 63 179 15 33
25 63 24 68 -2 5 -264 9 -583 10 l-580 1 800 8 c440 5 827 10 860 12 97 7
4778 -4 5145 -12z m-7377 2 c-7 -2 -21 -2 -30 0 -10 3 -4 5 12 5 17 0 24 -2
18 -5z m127 -3 c13 -9 13 -10 0 -10 -8 0 -22 5 -30 10 -13 9 -13 10 0 10 8 0
22 -5 30 -10z m65 0 c3 -5 -3 -10 -14 -10 -11 0 -23 5 -26 10 -3 6 3 10 14 10
11 0 23 -4 26 -10z m150 0 c3 -6 -5 -10 -19 -10 -14 0 -28 5 -31 10 -3 6 5 10
19 10 14 0 28 -4 31 -10z m85 0 c0 -5 -5 -10 -11 -10 -5 0 -7 5 -4 10 3 6 8
10 11 10 2 0 4 -4 4 -10z m30 0 c0 -5 -4 -10 -10 -10 -5 0 -10 5 -10 10 0 6 5
10 10 10 6 0 10 -4 10 -10z m95 0 c3 -5 -3 -10 -15 -10 -12 0 -18 5 -15 10 3
6 10 10 15 10 5 0 12 -4 15 -10z m7270 0 c3 -5 -3 -10 -14 -10 -12 0 -21 5
-21 10 0 6 6 10 14 10 8 0 18 -4 21 -10z m238 -2 c-2 -5 -52 -8 -111 -7 -59 1
-97 4 -84 7 32 10 201 9 195 0z m37 2 c0 -5 -4 -10 -10 -10 -5 0 -10 5 -10 10
0 6 5 10 10 10 6 0 10 -4 10 -10z m-7593 -6 c-3 -3 -12 -4 -19 -1 -8 3 -5 6 6
6 11 1 17 -2 13 -5z m-501 -70 c1 -53 1 -54 -3 -9 -2 27 -10 56 -16 64 -10 11
-9 13 3 9 11 -3 15 -21 16 -64z m8091 24 c-3 -8 -6 -5 -6 6 -1 11 2 17 5 13 3
-3 4 -12 1 -19z m210 -45 c-3 -10 -5 -4 -5 12 0 17 2 24 5 18 2 -7 2 -21 0
-30z m-8320 -75 c-3 -8 -6 -5 -6 6 -1 11 2 17 5 13 3 -3 4 -12 1 -19z m112 -5
c0 -16 3 -39 7 -53 7 -23 6 -24 -9 -11 -15 12 -17 11 -17 -8 0 -11 -4 -21 -10
-21 -13 0 -13 27 -1 34 5 4 12 24 16 46 8 46 16 53 14 13z m-131 -27 c-7 -8
-15 -12 -17 -11 -5 6 10 25 20 25 5 0 4 -6 -3 -14z m-66 -36 c3 -16 1 -35 -4
-42 -4 -8 -8 4 -8 30 0 49 6 55 12 12z m34 4 c-4 -9 -9 -15 -11 -12 -3 3 -3
13 1 22 4 9 9 15 11 12 3 -3 3 -13 -1 -22z m8141 -26 c-3 -8 -6 -5 -6 6 -1 11
2 17 5 13 3 -3 4 -12 1 -19z m-6451 -115 c0 -44 -3 -68 -7 -57 -7 18 -8 18 -8
-2 -1 -24 -23 -74 -33 -74 -4 0 0 16 8 36 11 26 12 40 5 47 -8 8 -11 5 -12 -8
0 -11 -3 -15 -5 -8 -3 7 1 27 9 45 8 18 20 48 27 66 7 17 13 32 14 32 1 0 2
-35 2 -77z m-1626 37 c0 -5 -9 -15 -20 -22 -25 -16 -26 -37 -3 -54 10 -7 15
-16 10 -20 -8 -8 -47 29 -47 46 0 12 41 60 52 60 4 0 8 -4 8 -10z m-93 -32
c-3 -8 -6 -5 -6 6 -1 11 2 17 5 13 3 -3 4 -12 1 -19z m20 -20 c-3 -8 -6 -5 -6
6 -1 11 2 17 5 13 3 -3 4 -12 1 -19z m-10 -60 c-3 -8 -6 -5 -6 6 -1 11 2 17 5
13 3 -3 4 -12 1 -19z m8130 -10 c-3 -7 -5 -2 -5 12 0 14 2 19 5 13 2 -7 2 -19
0 -25z m-6427 -35 c-11 -17 -11 -17 -6 0 3 10 6 24 7 30 0 9 2 9 5 0 3 -7 0
-20 -6 -30z m-79 -16 c-10 -9 -11 -8 -5 6 3 10 9 15 12 12 3 -3 0 -11 -7 -18z
m-1576 -61 c14 -5 15 -9 5 -21 -7 -8 -9 -22 -6 -31 3 -9 3 -21 -1 -27 -4 -6
-12 13 -19 43 -15 63 -17 95 -4 64 4 -12 16 -24 25 -28z m1556 17 c-12 -20
-14 -14 -5 12 4 9 9 14 11 11 3 -2 0 -13 -6 -23z m6496 -65 c-3 -7 -5 -2 -5
12 0 14 2 19 5 13 2 -7 2 -19 0 -25z m-7850 0 c-3 -8 -6 -5 -6 6 -1 11 2 17 5
13 3 -3 4 -12 1 -19z m1326 -8 c-3 -11 -10 -23 -16 -27 -5 -3 -8 -2 -5 3 3 5
8 17 11 27 9 24 16 22 10 -3z m149 -32 c-7 -7 -12 -8 -12 -2 0 14 12 26 19 19
2 -3 -1 -11 -7 -17z m6365 0 c-3 -8 -6 -5 -6 6 -1 11 2 17 5 13 3 -3 4 -12 1
-19z m-10 -50 c-3 -8 -6 -5 -6 6 -1 11 2 17 5 13 3 -3 4 -12 1 -19z m-6353 -3
c-4 -8 -8 -15 -10 -15 -2 0 -4 7 -4 15 0 8 4 15 10 15 5 0 7 -7 4 -15z m-44
-129 c-12 -31 -24 -56 -26 -53 -2 2 3 20 11 40 8 20 12 44 8 53 -5 13 -3 15 7
9 10 -6 12 -1 7 21 -6 25 -5 26 4 9 8 -16 5 -35 -11 -79z m-1576 -62 c3 -8 2
-12 -4 -9 -6 3 -10 10 -10 16 0 14 7 11 14 -7z m1543 -56 c-3 -7 -5 -2 -5 12
0 14 2 19 5 13 2 -7 2 -19 0 -25z m-256 -21 c-10 -9 -11 -8 -5 6 3 10 9 15 12
12 3 -3 0 -11 -7 -18z m246 -49 c-3 -7 -5 -2 -5 12 0 14 2 19 5 13 2 -7 2 -19
0 -25z m44 -94 c21 -22 21 -23 1 -21 -12 0 -18 6 -15 14 7 19 -7 16 -24 -4
-13 -16 -13 -16 -4 4 6 12 9 36 6 55 -5 33 -5 33 4 4 6 -16 20 -39 32 -52z
m164 -74 c15 0 24 -3 22 -7 -3 -5 15 -6 39 -4 l44 3 0 -42 c0 -42 0 -42 -31
-36 -17 3 -77 6 -132 6 -101 0 -119 7 -50 20 l38 8 -45 2 c-44 3 -44 3 -11 9
35 6 52 26 29 34 -18 6 23 -3 46 -10 12 -4 17 -2 13 4 -4 6 -19 13 -34 16 -16
3 -37 13 -48 21 -15 12 -6 11 37 -4 32 -11 69 -20 83 -20z m-1306 -280 c0 -10
-3 -8 -9 5 -12 27 -12 43 0 25 5 -8 9 -22 9 -30z m30 -50 c11 -24 11 -24 -3
-6 -9 11 -16 24 -16 30 0 12 5 7 19 -24z m-184 -109 c25 -57 16 -49 -15 12
-17 33 -30 62 -30 65 1 9 27 -36 45 -77z m225 24 c0 -5 -5 -3 -10 5 -5 8 -10
20 -10 25 0 6 5 3 10 -5 5 -8 10 -19 10 -25z m7121 -8 c-10 -9 -11 -8 -5 6 3
10 9 15 12 12 3 -3 0 -11 -7 -18z m202 -77 c-3 -12 -8 -19 -11 -16 -5 6 5 36
12 36 2 0 2 -9 -1 -20z m-7475 -85 c-3 -3 -9 2 -12 12 -6 14 -5 15 5 6 7 -7
10 -15 7 -18z m426 -281 c3 -8 2 -12 -4 -9 -6 3 -10 10 -10 16 0 14 7 11 14
-7z m-214 -40 c0 -8 -19 -13 -24 -6 -3 5 1 9 9 9 8 0 15 -2 15 -3z m281 -76
c-11 -11 -13 -10 -6 0 4 8 -1 23 -11 35 -18 22 -18 22 6 0 20 -19 22 -25 11
-35z m-30 -1 c-10 -9 -11 -8 -5 6 3 10 9 15 12 12 3 -3 0 -11 -7 -18z m6469 9
c0 -2 -8 -10 -17 -17 -16 -13 -17 -12 -4 4 13 16 21 21 21 13z m250 -22 c0 -8
-19 -13 -24 -6 -3 5 1 9 9 9 8 0 15 -2 15 -3z m-302 -43 c-13 -15 -25 -27 -27
-25 -4 4 39 54 47 54 2 0 -7 -13 -20 -29z m13 -24 c-10 -9 -11 -8 -5 6 3 10 9
15 12 12 3 -3 0 -11 -7 -18z m-60 -34 c-17 -28 -38 -53 -45 -53 -4 0 5 16 20
35 28 37 41 47 25 18z m-6490 -20 c13 -16 12 -17 -3 -4 -17 13 -22 21 -14 21
2 0 10 -8 17 -17z m44 -35 c5 4 5 1 1 -6 -6 -10 -11 -10 -22 -1 -8 6 -14 14
-14 16 0 3 6 0 13 -6 8 -6 18 -7 22 -3z m16 -31 c-10 -9 -11 -8 -5 6 3 10 9
15 12 12 3 -3 0 -11 -7 -18z m6360 -1 c-8 -10 -9 -16 -1 -21 5 -3 10 -14 9
-23 0 -12 -2 -13 -6 -4 -4 10 -13 6 -34 -14 -32 -31 -36 -44 -14 -44 8 0 15 7
15 15 0 9 9 15 23 15 21 -1 21 -1 -6 -25 -15 -14 -23 -25 -17 -25 9 0 10 -26
6 -92 -3 -51 -6 -103 -7 -115 -1 -15 -40 -58 -113 -126 -187 -175 -204 -189
-217 -181 -7 4 -9 3 -6 -4 4 -5 -17 -29 -45 -52 -29 -22 -60 -46 -68 -53 -57
-46 -209 -154 -280 -199 -1285 -823 -2889 -897 -4236 -198 -77 40 -168 91
-204 114 -36 23 -84 53 -107 66 -23 13 -39 28 -36 33 3 6 2 7 -3 4 -6 -3 -16
-1 -24 4 -12 8 -12 12 -2 16 13 5 7 23 -9 23 -6 0 -7 -4 -4 -10 10 -17 -8 -11
-50 15 -44 27 -41 34 5 10 17 -9 30 -11 30 -6 0 5 -9 11 -20 14 -11 3 -19 11
-17 19 2 7 2 10 0 6 -8 -13 -23 -9 -23 7 0 16 -34 38 -44 28 -3 -3 -6 -1 -6 5
0 17 26 15 55 -4 29 -19 34 -5 6 20 -11 10 -26 14 -37 10 -11 -3 -14 -3 -8 3
7 4 13 45 15 95 3 68 1 84 -8 76 -9 -7 -13 -7 -13 0 0 6 5 12 12 14 6 2 -5 12
-24 21 -20 9 -38 24 -42 32 -3 8 -10 15 -16 15 -6 0 -8 -6 -4 -12 5 -10 4 -10
-6 -1 -8 7 -14 22 -15 33 -2 18 3 17 34 -13 64 -60 324 -241 461 -320 428
-248 884 -417 1333 -496 263 -46 444 -61 718 -61 736 0 1439 194 2064 570 207
125 467 315 596 438 33 30 40 33 60 22 21 -10 22 -10 7 3 -22 18 -23 31 -2 23
8 -3 13 -2 10 2 -6 11 68 84 77 77 4 -3 5 -2 2 2 -8 10 67 83 78 76 6 -3 7 -1
4 4 -4 6 18 34 48 62 30 29 55 55 55 59 0 7 51 62 58 62 2 0 -1 -6 -7 -14z
m-6326 -46 c3 -5 1 -10 -4 -10 -6 0 -11 5 -11 10 0 6 2 10 4 10 3 0 8 -4 11
-10z m39 -27 c-2 -10 9 -33 26 -52 16 -18 30 -35 30 -37 0 -11 -12 1 -52 48
-23 29 -38 49 -31 45 6 -4 14 -3 18 3 9 15 14 12 9 -7z m292 -35 l29 -33 -32
29 c-31 28 -38 36 -30 36 2 0 16 -15 33 -32z m6134 -24 c0 0 -8 -8 -18 -17
-16 -15 -18 -15 -18 1 0 10 8 18 18 18 10 0 18 -1 18 -2z m30 3 c0 -2 -10 -12
-22 -23 l-23 -19 19 23 c18 21 26 27 26 19z m-6360 -77 c6 -11 8 -20 6 -20 -3
0 -10 9 -16 20 -6 11 -8 20 -6 20 3 0 10 -9 16 -20z m289 6 c9 -11 9 -16 -1
-22 -7 -4 -10 -4 -6 1 4 4 3 14 -3 22 -6 7 -9 13 -6 13 2 0 10 -6 16 -14z
m6011 0 c0 -2 -8 -10 -17 -17 -16 -13 -17 -12 -4 4 13 16 21 21 21 13z m-86
-51 c-8 -21 13 -19 25 2 5 10 12 15 15 12 3 -3 -12 -25 -35 -48 -23 -23 -44
-39 -48 -35 -3 4 0 9 8 12 11 4 11 6 0 14 -11 7 -9 8 6 6 14 -2 20 3 21 17 1
28 3 35 9 35 2 0 2 -7 -1 -15z m-5850 -23 c3 -5 -1 -9 -9 -9 -8 0 -12 4 -9 9
3 4 7 8 9 8 2 0 6 -4 9 -8z m196 -179 c0 -7 -39 17 -46 28 -3 6 5 3 20 -6 14
-10 26 -19 26 -22z m105 -123 c19 -8 19 -9 -2 -9 -12 -1 -25 4 -28 9 -7 12 2
12 30 0z m-50 -10 c3 -5 1 -10 -4 -10 -6 0 -11 5 -11 10 0 6 2 10 4 10 3 0 8
-4 11 -10z m-98 -105 c0 -8 -4 -12 -9 -9 -5 3 -6 10 -3 15 9 13 12 11 12 -6z
m137 -104 c10 -11 28 -22 42 -25 20 -5 35 -26 18 -26 -8 0 -94 60 -94 65 0 11
18 3 34 -14z"/>
<path d="M7160 11489 c-364 -34 -726 -114 -1045 -232 -1405 -521 -2404 -1780
-2589 -3262 -9 -66 -17 -157 -18 -203 l-3 -82 915 0 c503 0 917 4 921 8 4 4
46 102 94 217 48 116 141 338 207 495 67 157 142 337 168 400 86 208 74 190
124 190 l43 0 31 -67 c17 -38 115 -261 218 -498 103 -236 217 -500 255 -585
l67 -155 816 -3 816 -2 0 467 c0 299 -4 482 -11 506 -6 21 -27 56 -46 78 -61
68 -136 96 -283 107 l-85 7 -3 38 -3 37 699 0 c735 0 832 -4 1039 -46 399 -79
628 -266 684 -559 14 -70 13 -233 -1 -302 -18 -90 -71 -191 -140 -266 l-62
-67 739 -1 c406 -1 749 -2 763 -3 l25 -1 -3 85 c-2 47 -10 138 -18 203 -139
1104 -716 2081 -1619 2743 -576 422 -1259 680 -1984 748 -174 17 -558 20 -711
5z"/>
<path d="M8739 8771 c-50 -16 -71 -33 -85 -66 -11 -28 -14 -123 -14 -515 l0
-480 406 0 406 0 69 46 c142 94 209 233 209 434 0 285 -151 478 -441 560 -62
18 -109 22 -299 25 -124 3 -237 1 -251 -4z"/>
<path d="M5800 8303 c-112 -253 -252 -585 -248 -589 3 -2 126 -3 275 -2 l270
3 -134 314 c-73 173 -135 317 -137 319 -3 2 -14 -18 -26 -45z"/>
<path d="M5170 7250 c6 -11 12 -20 14 -20 2 0 2 9 -1 20 -3 11 -9 20 -15 20
-5 0 -4 -9 2 -20z"/>
<path d="M8647 7253 c-12 -11 -8 -887 4 -944 16 -75 62 -121 141 -145 85 -24
352 -25 486 0 387 70 552 260 552 635 0 187 -39 302 -138 409 l-48 52 -495 0
c-273 0 -499 -3 -502 -7z"/>
<path d="M5150 7211 c-12 -24 -13 -31 -1 -31 5 0 11 11 13 25 6 30 2 32 -12 6z"/>
<path d="M5102 7112 c-7 -21 -7 -29 2 -29 6 0 11 13 12 29 1 35 -1 35 -14 0z"/>
<path d="M5096 7040 c5 -33 4 -34 -11 -16 -13 17 -15 17 -15 4 0 -22 19 -33
32 -20 7 7 7 19 -1 39 -11 28 -11 27 -5 -7z"/>
<path d="M10285 6970 c3 -5 8 -10 11 -10 2 0 4 5 4 10 0 6 -5 10 -11 10 -5 0
-7 -4 -4 -10z"/>
<path d="M5139 6900 c0 -23 -1 -23 -9 -5 -10 23 -13 5 -4 -20 5 -13 9 -14 15
-3 7 11 11 10 19 -2 15 -23 12 -6 -5 26 l-15 29 -1 -25z"/>
<path d="M5167 6903 c3 -7 6 -13 8 -13 2 0 5 6 8 13 3 8 -1 14 -8 14 -7 0 -11
-6 -8 -14z"/>
<path d="M5131 6833 c7 -12 15 -20 18 -17 3 2 -3 12 -13 22 -17 16 -18 16 -5
-5z"/>
<path d="M5020 6897 c0 -9 -4 -17 -10 -17 -5 0 -10 -7 -10 -15 0 -8 4 -15 9
-15 10 0 25 50 16 58 -3 3 -5 -2 -5 -11z"/>
<path d="M10520 4855 c-8 -9 -8 -15 -2 -15 12 0 26 19 19 26 -2 2 -10 -2 -17
-11z"/>
<path d="M10457 4775 c-18 -25 -15 -49 6 -42 8 2 21 69 13 67 0 0 -9 -12 -19
-25z m13 -25 c0 -5 -2 -10 -4 -10 -3 0 -8 5 -11 10 -3 6 -1 10 4 10 6 0 11 -4
11 -10z"/>
<path d="M10430 4700 c0 -5 7 -10 16 -10 8 0 12 5 9 10 -3 6 -10 10 -16 10 -5
0 -9 -4 -9 -10z"/>
<path d="M10370 4690 c-8 -5 -12 -12 -9 -15 4 -3 12 1 19 10 14 17 11 19 -10
5z"/>
<path d="M10490 4580 c0 -5 5 -10 10 -10 6 0 10 5 10 10 0 6 -4 10 -10 10 -5
0 -10 -4 -10 -10z"/>
<path d="M10415 4510 c3 -5 11 -10 16 -10 6 0 7 5 4 10 -3 6 -11 10 -16 10 -6
0 -7 -4 -4 -10z"/>
<path d="M10450 4516 c0 -2 7 -7 16 -10 8 -3 12 -2 9 4 -6 10 -25 14 -25 6z"/>
<path d="M10404 4476 c4 -10 1 -26 -6 -35 -11 -14 -10 -14 6 0 15 14 16 20 6
35 -11 18 -11 18 -6 0z"/>
<path d="M5120 4220 c0 -5 5 -10 11 -10 5 0 7 5 4 10 -3 6 -8 10 -11 10 -2 0
-4 -4 -4 -10z"/>
</g>
</svg>
